<?xml version="1.0" encoding="UTF-8" standalone="no"?>
<svg viewBox="0 0 162 160" version="1.1" xmlns="http://www.w3.org/2000/svg" xmlns:xlink="http://www.w3.org/1999/xlink" xmlns:sketch="http://www.bohemiancoding.com/sketch/ns">
    <!-- Generator: sketchtool 3.4 (375) - http://www.bohemiancoding.com/sketch -->
    <title>font@2x</title>
    <desc>Created with sketchtool.</desc>
    <defs></defs>
    <g id="Logo" stroke="none" stroke-width="1" fill="none" fill-rule="evenodd" sketch:type="MSPage">
        <g id="font" sketch:type="MSArtboardGroup" transform="translate(-2.000000, -6.000000)" fill="#000000">
            <g id="Logo" sketch:type="MSLayerGroup" transform="translate(2.000000, 6.000000)">
                <path d="M132.689534,43.4789563 L132.689534,43.4789563 C148.552365,43.4789563 161.454987,56.4054425 161.454987,72.2955183 C161.454987,73.1239454 160.783414,73.7955183 159.954987,73.7955183 L155.568086,73.7955183 C154.739608,73.7955183 154.068014,73.1238661 154.068086,72.2953882 C154.069111,60.4827841 144.476337,50.8715307 132.688438,50.8715307 C127.288821,50.8715307 122.19756,52.8942226 118.280488,56.479931 C117.614731,57.0893686 116.565425,56.9770985 116.043675,56.2406043 C115.22748,55.088475 114.348772,53.9816919 113.41191,52.9254381 C112.864065,52.3077767 112.918353,51.3635129 113.533376,50.8127073 C118.772268,46.1208317 125.53319,43.4789563 132.689534,43.4789563 L132.689534,43.4789563 Z" id="Tentacle---Right" sketch:type="MSShapeGroup"></path>
                <path d="M104.012815,41.3582212 L104.012815,41.3582212 C106.215009,37.9319704 107.403629,33.9494823 107.403629,29.7929495 C107.403629,17.9811183 97.8105603,8.37115873 86.0217876,8.37115873 C85.1933605,8.37115873 84.5217876,7.69958586 84.5217876,6.87115873 L84.5217876,2.47748597 C84.5217876,1.64905885 85.1933605,0.977485972 86.0217876,0.977485972 C101.886274,0.977485972 114.789434,13.903434 114.789434,29.7929495 C114.789434,35.4997591 113.120523,40.969005 110.03971,45.6395521 C109.545394,46.3889414 108.507939,46.5392264 107.821292,45.9609105 C106.741105,45.0511424 105.612099,44.2011836 104.439517,43.4152702 C103.760694,42.9602951 103.570968,42.0456616 104.012815,41.3582212 L104.012815,41.3582212 Z" id="Tentacle---Left" sketch:type="MSShapeGroup"></path>
                <path d="M98.9738394,104.210705 L98.9738394,104.210705 L97.7653375,104.850611 L97.5218667,103.504996 C93.7438089,82.6244293 77.3010616,66.1603949 56.4567243,62.3864052 L55.1103611,62.1426382 L55.7514407,60.9338648 C61.2608716,50.5456798 72.0557058,43.9102785 84.0287702,43.9102785 C101.699724,43.9102785 116.018987,58.2400606 116.018987,75.909142 C116.018987,87.8922587 109.373678,98.7039625 98.9738394,104.210705 L98.9738394,104.210705 Z" id="Head" sketch:type="MSShapeGroup"></path>
                <path d="M46.378899,67.6099184 L46.378899,67.6099184 C71.78661,67.6099184 92.3767573,88.2200008 92.3767573,113.635009 C92.3767573,139.0503 71.7863299,159.661192 46.378899,159.661192 C20.9717479,159.661192 0.382130776,139.050581 0.382130776,113.635009 C0.382130776,88.2197191 20.9714679,67.6099184 46.378899,67.6099184 L46.378899,67.6099184 L46.378899,67.6099184 Z" id="Body" sketch:type="MSShapeGroup"></path>
            </g>
        </g>
    </g>
</svg>