<?xml version="1.0" encoding="UTF-8"?>
<svg width="62px" height="64px" viewBox="0 0 62 64" version="1.1" xmlns="http://www.w3.org/2000/svg" xmlns:xlink="http://www.w3.org/1999/xlink">
    <!-- Generator: Sketch 58 (84663) - https://sketch.com -->
    <title>Calendar_2_</title>
    <desc>Created with Sketch.</desc>
    <g id="Page-1" stroke="none" stroke-width="1" fill="none" fill-rule="evenodd">
        <g id="mobile-app-landing-page-by-andrei-dulcu" transform="translate(-224.000000, -921.000000)">
            <g id="how-it-works-section" transform="translate(0.000000, 857.000000)">
                <g id="Calendar_2_" transform="translate(224.000000, 64.000000)">
                    <g id="Group">
                        <g id="Circle_Shadow_4_" transform="translate(0.000000, 2.000000)" fill="#61B10B">
                            <circle id="Oval" cx="31" cy="31" r="31"></circle>
                        </g>
                        <g id="Circle_4_" fill="#80D623">
                            <circle id="Oval" cx="31" cy="31" r="31"></circle>
                        </g>
                        <g id="Long_Shadow_5_" opacity="0.15" transform="translate(16.000000, 15.000000)" fill="#000000">
                            <polygon id="Shape" points="8.4 0.6 8.4 5 12.8 5"></polygon>
                            <polygon id="Shape" points="24.4 0.6 24.4 5 28.8 5"></polygon>
                            <path d="M29.4,4.6 L0.6,31.4 L16.2,47 C31.2,46.5 43.4,35.3 45.7,20.8 L29.4,4.6 L29.4,4.6 Z" id="Shape"></path>
                        </g>
                        <g id="Calendar" transform="translate(16.000000, 19.000000)" fill="#FFFCF2">
                            <path d="M2,0 C0.9,0 0,0.9 0,2 L0,26 C0,27.1 0.9,28 2,28 L28,28 C29.1,28 30,27.1 30,26 L30,2 C30,0.9 29.1,0 28,0 L2,0 Z" id="Shape"></path>
                        </g>
                        <g id="Rings" transform="translate(21.000000, 15.000000)" fill="#344E5F">
                            <path d="M2,0 C0.9,0 0,0.9 0,2 L0,6 C0,7.1 0.9,8 2,8 C3.1,8 4,7.1 4,6 L4,2 C4,0.9 3.1,0 2,0 L2,0 Z M18,0 C16.9,0 16,0.9 16,2 L16,6 C16,7.1 16.9,8 18,8 C19.1,8 20,7.1 20,6 L20,2 C20,0.9 19.1,0 18,0 L18,0 Z" id="Shape"></path>
                        </g>
                        <g id="Shading_1_" opacity="0.149" transform="translate(38.000000, 39.000000)" fill="#344E5F">
                            <g id="Group">
                                <polygon id="Shape" points="0 6 6 6 6 0"></polygon>
                            </g>
                        </g>
                        <g id="_x33_1" transform="translate(24.000000, 27.000000)" fill="#CE2262">
                            <path d="M6.8,6.7 C6.6,6.5 6.4,6.3 6.2,6.2 C6,6.1 5.7,6 5.4,5.9 L5.4,5.9 C6,5.8 6.4,5.5 6.7,5.1 C7,4.7 7.1,4.2 7.1,3.7 C7.1,3.2 7,2.8 6.8,2.5 C6.6,2.2 6.4,1.9 6.1,1.6 C5.8,1.4 5.4,1.2 5,1.1 C4.6,1 4.2,0.9 3.7,0.9 C3.3,0.9 2.9,0.9 2.5,1 C2.1,1.1 1.8,1.2 1.5,1.4 C1.2,1.6 0.9,1.8 0.7,2.1 C0.5,2.4 0.3,2.8 0.2,3.2 L2.5,3.7 C2.6,3.4 2.7,3.2 2.9,3 C3.1,2.8 3.4,2.7 3.7,2.7 C4,2.7 4.3,2.8 4.6,3 C4.9,3.2 5,3.4 5,3.7 C5,3.9 5,4.1 4.9,4.3 C4.8,4.4 4.7,4.6 4.5,4.6 C4.3,4.7 4.2,4.7 4,4.8 L3.4,4.8 L2.7,4.8 L2.7,6.6 L3.2,6.6 L3.9,6.6 C4.1,6.6 4.3,6.7 4.5,6.7 C4.7,6.8 4.8,6.9 5,7 C5.1,7.2 5.2,7.4 5.2,7.7 C5.2,8.1 5.1,8.4 4.9,8.6 C4.7,8.8 4.3,9 3.9,9 C3.5,9 3.1,8.9 2.9,8.7 C2.7,8.5 2.5,8.2 2.4,7.9 L0.2,8.4 C0.4,9.3 0.8,9.9 1.5,10.3 C2.1,10.7 2.9,10.9 3.8,10.9 C4.3,10.9 4.7,10.8 5.2,10.7 C5.6,10.6 6,10.4 6.3,10.1 C6.6,9.9 6.9,9.5 7.1,9.2 C7.3,8.8 7.4,8.4 7.4,7.9 C7.4,7.6 7.4,7.3 7.3,7.1 C7.1,7.1 7,6.9 6.8,6.7 L6.8,6.7 Z M11.8,1.1 L8.6,3.8 L9.8,5.2 L11.8,3.4 L11.8,11 L13.8,11 L13.8,1.1 L11.8,1.1 L11.8,1.1 Z" id="Shape"></path>
                        </g>
                    </g>
                </g>
            </g>
        </g>
    </g>
</svg>