<?xml version="1.0" encoding="UTF-8"?>
<svg width="62px" height="64px" viewBox="0 0 62 64" version="1.1" xmlns="http://www.w3.org/2000/svg" xmlns:xlink="http://www.w3.org/1999/xlink">
    <!-- Generator: Sketch 58 (84663) - https://sketch.com -->
    <title>Heart_2_</title>
    <desc>Created with Sketch.</desc>
    <g id="Page-1" stroke="none" stroke-width="1" fill="none" fill-rule="evenodd">
        <g id="mobile-app-landing-page-by-andrei-dulcu" transform="translate(-58.000000, -919.000000)">
            <g id="how-it-works-section" transform="translate(0.000000, 857.000000)">
                <g id="Heart_2_" transform="translate(58.000000, 62.000000)">
                    <g id="Group">
                        <g id="Circle_Shadow_20_" transform="translate(0.000000, 2.000000)" fill="#61B10B">
                            <circle id="Oval" cx="31" cy="31" r="31"></circle>
                        </g>
                        <g id="Circle_20_" fill="#80D623">
                            <circle id="Oval" cx="31" cy="31" r="31"></circle>
                        </g>
                        <path d="M23.8,42.6 L41.4,60.2 C51.9,56.5 59.9,47.2 61.7,35.9 L44.4,18.6 L23.8,42.6 L23.8,42.6 Z" id="Long_Shadow_21_" fill="#000000" opacity="0.15"></path>
                        <g id="Heart" transform="translate(15.000000, 16.000000)" fill="#FFFCF2">
                            <path d="M23,0 C20.2,0 17.6,1.3 16,3.3 C14.4,1.3 11.8,0 9,0 C4,0 0,4 0,9 C0,21 14,32 16,32 C18,32 32,21 32,9 C32,4 28,0 23,0 L23,0 Z" id="Shape"></path>
                        </g>
                    </g>
                </g>
            </g>
        </g>
    </g>
</svg>