<?xml version="1.0" encoding="UTF-8"?>
<svg width="62px" height="64px" viewBox="0 0 62 64" version="1.1" xmlns="http://www.w3.org/2000/svg" xmlns:xlink="http://www.w3.org/1999/xlink">
    <!-- Generator: Sketch 58 (84663) - https://sketch.com -->
    <title>Location_1_</title>
    <desc>Created with Sketch.</desc>
    <g id="Page-1" stroke="none" stroke-width="1" fill="none" fill-rule="evenodd">
        <g id="mobile-app-landing-page-by-andrei-dulcu" transform="translate(-140.000000, -920.000000)">
            <g id="how-it-works-section" transform="translate(0.000000, 857.000000)">
                <g id="Location_1_" transform="translate(140.000000, 63.000000)">
                    <g id="Group">
                        <g id="Circle_Shadow_15_" transform="translate(0.000000, 2.000000)" fill="#2C4251">
                            <circle id="Oval" cx="31" cy="31" r="31"></circle>
                        </g>
                        <g id="Circle_15_" fill="#344E5F">
                            <circle id="Oval" cx="31" cy="31" r="31"></circle>
                        </g>
                        <path d="M60.6,40.1 L38.7,18.2 L24.9,20.8 L23.1,31.3 L29.3,45.9 L42.4,59.8 C51.1,56.3 57.9,49.1 60.6,40.1 L60.6,40.1 Z" id="Shape" fill="#000000" opacity="0.15"></path>
                        <g id="Location_Pin" transform="translate(20.000000, 15.000000)" fill="#80D623">
                            <path d="M11,0 C4.9,0 0,4.9 0,11 C0,19 9,32 11,32 C13,32 22,19 22,11 C22,4.9 17.1,0 11,0 L11,0 Z M11,17 C7.7,17 5,14.3 5,11 C5,7.7 7.7,5 11,5 C14.3,5 17,7.7 17,11 C17,14.3 14.3,17 11,17 L11,17 Z" id="Shape"></path>
                        </g>
                    </g>
                </g>
            </g>
        </g>
    </g>
</svg>