<?xml version="1.0" encoding="UTF-8"?>
<svg width="62px" height="64px" viewBox="0 0 62 64" version="1.1" xmlns="http://www.w3.org/2000/svg" xmlns:xlink="http://www.w3.org/1999/xlink">
    <!-- Generator: Sketch 58 (84663) - https://sketch.com -->
    <title>Photos_1_</title>
    <desc>Created with Sketch.</desc>
    <g id="Page-1" stroke="none" stroke-width="1" fill="none" fill-rule="evenodd">
        <g id="mobile-app-landing-page-by-andrei-dulcu" transform="translate(-308.000000, -922.000000)">
            <g id="how-it-works-section" transform="translate(0.000000, 857.000000)">
                <g id="Photos_1_" transform="translate(308.000000, 65.000000)">
                    <g id="Group">
                        <g id="Circle_Shadow" transform="translate(0.000000, 2.000000)" fill="#2C4251">
                            <circle id="Oval" cx="31" cy="31" r="31"></circle>
                        </g>
                        <g id="Circle" fill="#344E5F">
                            <circle id="Oval" cx="31" cy="31" r="31"></circle>
                        </g>
                        <g id="Long_Shadow" transform="translate(10.000000, 17.000000)" fill="#000000" opacity="0.15">
                            <polygon id="Shape" points="4 22.7 0.9 22.7 4 25.9"></polygon>
                            <path d="M38.3,0.5 L37.3,27.5 L3.6,27.5 L21.1,45 C38.1,44.9 51.9,31.2 52,14.2 L38.3,0.5 L38.3,0.5 Z" id="Shape"></path>
                        </g>
                        <g id="Photo_Frame" transform="translate(10.000000, 13.000000)" fill="#F9ECC6">
                            <path d="M40.1,8.6 L9.2,0.3 C8.1,-3.41671136e-14 7,0.6 6.8,1.7 L0.6,24.9 C0.3,26 0.9,27.1 2,27.3 L32.9,35.6 C34,35.9 35.1,35.3 35.3,34.2 L41.5,11 C41.8,10 41.1,8.9 40.1,8.6 L40.1,8.6 Z" id="Shape"></path>
                        </g>
                        <g id="Photo_Frame_1_" transform="translate(13.000000, 17.000000)" fill="#FFFCF2">
                            <path d="M34,0 L2,0 C0.9,0 0,0.9 0,2 L0,26 C0,27.1 0.9,28 2,28 L34,28 C35.1,28 36,27.1 36,26 L36,2 C36,0.9 35.1,0 34,0 L34,0 Z" id="Shape"></path>
                        </g>
                        <g id="Sky" transform="translate(15.000000, 19.000000)" fill="#344E5F">
                            <rect id="Rectangle-path" x="0" y="0" width="32" height="24"></rect>
                        </g>
                        <g id="Grass" transform="translate(15.000000, 32.000000)" fill="#80D623">
                            <path d="M18,2 C14.9,0.2 8,-2 0,4 L0,11 L32,11 L32,3 C32,3 25,6 18,2 L18,2 Z" id="Shape"></path>
                        </g>
                        <g id="Sun" transform="translate(35.000000, 23.000000)" fill="#EDC03D">
                            <circle id="Oval" cx="4" cy="4" r="4"></circle>
                        </g>
                    </g>
                </g>
            </g>
        </g>
    </g>
</svg>