<?xml version="1.0" encoding="UTF-8"?>
<svg width="162px" height="160px" viewBox="0 0 162 160" version="1.1" xmlns="http://www.w3.org/2000/svg" xmlns:xlink="http://www.w3.org/1999/xlink">
    <!-- Generator: sketchtool 43.1 (39012) - http://www.bohemiancoding.com/sketch -->
    <title>font@2x</title>
    <desc>Created with sketchtool.</desc>
    <defs></defs>
    <g id="Icon" stroke="none" stroke-width="1" fill="none" fill-rule="evenodd">
        <g id="font" transform="translate(-2.000000, -6.000000)" fill="#000000">
            <g id="Logo" transform="translate(2.000000, 7.000000)">
                <path d="M131.689534,43.4789563 L131.689534,43.4789563 C147.552365,43.4789563 160.454987,56.4054425 160.454987,72.2955183 C160.454987,73.1239454 159.783414,73.7955183 158.954987,73.7955183 L154.568086,73.7955183 C153.739608,73.7955183 153.068014,73.1238661 153.068086,72.2953882 C153.069111,60.4827841 143.476337,50.8715307 131.688438,50.8715307 C126.288821,50.8715307 121.19756,52.8942226 117.280488,56.479931 C116.614731,57.0893686 115.565425,56.9770985 115.043675,56.2406043 C114.22748,55.088475 113.348772,53.9816919 112.41191,52.9254381 C111.864065,52.3077767 111.918353,51.3635129 112.533376,50.8127073 C117.772268,46.1208317 124.53319,43.4789563 131.689534,43.4789563 L131.689534,43.4789563 Z" id="Tentacle---Right"></path>
                <path d="M103.012815,41.3582212 L103.012815,41.3582212 C105.215009,37.9319704 106.403629,33.9494823 106.403629,29.7929495 C106.403629,17.9811183 96.8105603,8.37115873 85.0217876,8.37115873 C84.1933605,8.37115873 83.5217876,7.69958586 83.5217876,6.87115873 L83.5217876,2.47748597 C83.5217876,1.64905885 84.1933605,0.977485972 85.0217876,0.977485972 C100.886274,0.977485972 113.789434,13.903434 113.789434,29.7929495 C113.789434,35.4997591 112.120523,40.969005 109.03971,45.6395521 C108.545394,46.3889414 107.507939,46.5392264 106.821292,45.9609105 C105.741105,45.0511424 104.612099,44.2011836 103.439517,43.4152702 C102.760694,42.9602951 102.570968,42.0456616 103.012815,41.3582212 L103.012815,41.3582212 Z" id="Tentacle---Left"></path>
                <path d="M97.9738394,104.210705 L97.9738394,104.210705 L96.7653375,104.850611 L96.5218667,103.504996 C92.7438089,82.6244293 76.3010616,66.1603949 55.4567243,62.3864052 L54.1103611,62.1426382 L54.7514407,60.9338648 C60.2608716,50.5456798 71.0557058,43.9102785 83.0287702,43.9102785 C100.699724,43.9102785 115.018987,58.2400606 115.018987,75.909142 C115.018987,87.8922587 108.373678,98.7039625 97.9738394,104.210705 L97.9738394,104.210705 Z" id="Head"></path>
                <path d="M46.378899,66.6099184 L46.378899,66.6099184 C71.78661,66.6099184 92.3767573,87.2200008 92.3767573,112.635009 C92.3767573,138.0503 71.7863299,158.661192 46.378899,158.661192 C20.9717479,158.661192 0.382130776,138.050581 0.382130776,112.635009 C0.382130776,87.2197191 20.9714679,66.6099184 46.378899,66.6099184 L46.378899,66.6099184 L46.378899,66.6099184 Z" id="Body"></path>
            </g>
        </g>
    </g>
</svg>