<?xml version="1.0" encoding="UTF-8"?>
<svg width="62px" height="62px" viewBox="0 0 62 62" version="1.1" xmlns="http://www.w3.org/2000/svg" xmlns:xlink="http://www.w3.org/1999/xlink">
    <!-- Generator: sketchtool 43.1 (39012) - http://www.bohemiancoding.com/sketch -->
    <title>logo@2x</title>
    <desc>Created with sketchtool.</desc>
    <defs>
        <path d="M36.6385764,38.2106968 C40.3301371,36.2681772 42.843498,32.4104342 42.843498,27.9724011 C42.843498,21.5832606 37.6337477,16.3968762 31.1986894,16.3968762 C26.7343222,16.3968762 22.8596943,18.8930772 20.905229,22.5553279 C28.8921011,23.9923933 35.1910821,30.2605026 36.6385764,38.2106968 L36.6385764,38.2106968 Z" id="path-1"></path>
        <path d="M17.0514651,25.2467417 C26.3940641,25.2467417 33.9597512,32.7786957 33.9597512,42.0599085 C33.9597512,51.3412165 26.393969,58.8734832 17.0514651,58.8734832 C7.70905618,58.8734832 0.143588534,51.3413115 0.143588534,42.0599085 C0.143588534,32.7786006 7.7089611,25.2467417 17.0514651,25.2467417 Z" id="path-2"></path>
    </defs>
    <g id="Symbols" stroke="none" stroke-width="1" fill="none" fill-rule="evenodd">
        <g id="Logo-/-With-Text" transform="translate(-109.000000, -1.000000)">
            <g id="Logo" transform="translate(110.000000, 3.000000)">
                <g id="Tentacles-Border" transform="translate(45.993618, 14.291830) rotate(3.000000) translate(-45.993618, -14.291830) translate(31.493618, 0.791830)" stroke="#000000" stroke-opacity="0.5" stroke-width="1.5" stroke-linecap="round" stroke-linejoin="round">
                    <path d="M18.0777739,15.0811687 C15.3433038,15.0811687 12.7593711,16.0845701 10.7571067,17.8666028 L10.1960752,18.3659256 L10.6961841,18.9262564 C11.0436313,19.3155422 11.3695009,19.7234378 11.6721768,20.1480302 L12.1626068,20.8360031 L12.7875789,20.2674628 C14.225545,18.9593378 16.0945407,18.2214338 18.0773619,18.2214338 C22.4047929,18.2214338 25.9249388,21.726399 25.924563,26.0315915 L25.9244976,26.781657 L26.674563,26.781657 L28.3229745,26.781657 L29.0729745,26.781657 L29.0729745,26.031657 C29.0729745,19.9921852 24.1403085,15.0811687 18.0777739,15.0811687 Z" id="Right"></path>
                    <path d="M6.68110357,14.5611883 L6.27925056,15.1825121 L6.89509805,15.5927083 C7.33004782,15.8824144 7.74882969,16.1957262 8.14949779,16.5310804 L8.79223127,17.0690403 L9.25575038,16.3707157 C10.4340265,14.5955588 11.0724806,12.5162874 11.0724806,10.3469665 C11.0724806,4.30770028 6.13960931,-0.603111633 0.0764560668,-0.603111633 L-0.673543933,-0.603111633 L-0.673543933,0.146888367 L-0.673543933,1.78756364 L-0.673543933,2.53756364 L0.0764560668,2.53756364 C4.40422462,2.53756364 7.92448116,6.04205924 7.92448116,10.3469665 C7.92448116,11.8615856 7.48873299,13.3124746 6.68110357,14.5611883 Z" id="Left"></path>
                </g>
                <g id="Tentacles" transform="translate(45.993618, 14.291830) rotate(3.000000) translate(-45.993618, -14.291830) translate(31.493618, 0.791830)" stroke="#80D623" stroke-width="1.25" fill="#80D623" stroke-linecap="round" stroke-linejoin="round">
                    <path d="M18.0777739,15.8311687 C23.726704,15.8311687 28.3229745,20.407012 28.3229745,26.031657 L26.674563,26.031657 C26.674975,21.3114343 22.8182443,17.4714338 18.0773619,17.4714338 C15.8471104,17.4714338 13.812434,18.3212414 12.2828878,19.7126773 C11.9639241,19.2652365 11.6209117,18.8360042 11.2557299,18.4268482 C13.0686861,16.8133015 15.4601289,15.8311687 18.0777739,15.8311687 Z" id="Right"></path>
                    <path d="M7.3108644,14.9684981 C8.17356926,13.6346297 8.67448116,12.0479331 8.67448116,10.3469665 C8.67448116,5.62715394 4.81775047,1.78756364 0.0764560668,1.78756364 L0.0764560668,0.146888367 C5.72621016,0.146888367 10.3224806,4.7227317 10.3224806,10.3469665 C10.3224806,12.4173704 9.69971375,14.345668 8.63087529,15.9559494 C8.20991192,15.6036083 7.76928175,15.2738352 7.3108644,14.9684981 L7.3108644,14.9684981 L7.3108644,14.9684981 Z" id="Left"></path>
                </g>
                <g id="Head" fill-rule="nonzero">
                    <use fill="#80D623" fill-rule="evenodd" xlink:href="#path-1"></use>
                    <path stroke-opacity="0.5" stroke="#000000" stroke-width="1" d="M36.8714114,38.653176 C40.8198976,36.5754609 43.343498,32.4952111 43.343498,27.9724011 C43.343498,21.3038633 37.9066244,15.8968762 31.1986894,15.8968762 C26.6540279,15.8968762 22.5559939,18.4001823 20.4641158,22.3199152 L20.1407637,22.925808 L20.8166866,23.0474257 C28.5984429,24.4475849 34.736548,30.5553648 36.1466633,38.3002596 L36.2686658,38.9703441 L36.8714114,38.653176 Z"></path>
                </g>
                <g id="Body" fill-rule="nonzero">
                    <use fill="#80D623" fill-rule="evenodd" xlink:href="#path-2"></use>
                    <path stroke-opacity="0.5" stroke="#000000" stroke-width="1" d="M17.0514651,24.7467417 C7.43648302,24.7467417 -0.356411466,32.4988067 -0.356411466,42.0599085 C-0.356411466,51.6211149 7.43658755,59.3734832 17.0514651,59.3734832 C26.6664471,59.3734832 34.4597512,51.6210105 34.4597512,42.0599085 C34.4597512,32.4989111 26.6665516,24.7467417 17.0514651,24.7467417 Z"></path>
                </g>
            </g>
        </g>
    </g>
</svg>